%
M48
M72
T01C0.01181
T02C0.02559
T03C0.03150
T04C0.06102
T05C0.08858
T06C0.11811
%
T01
X29746Y48874
X29517Y53283
X29517Y61472
X32036Y71551
X38965Y84150
X30776Y97378
X26997Y89819
X30776Y104937
X38335Y105567
X33296Y115646
X45894Y115646
X50304Y116276
X60383Y104937
X61013Y76591
X51564Y72811
X50304Y62102
X38965Y57693
X39010Y54498
X64162Y62102
X73611Y52654
X84162Y39425
X101643Y62732
X110776Y91079
X104477Y119425
X105107Y136433
X65422Y133283
X61643Y134117
X42745Y138323
X18178Y147772
X9359Y131394
X9359Y120055
X17548Y104307
T02
X66761Y157850
X66761Y165724
X74635Y165724
X74635Y157850
X82509Y157850
X82509Y165724
T03
X136446Y132417
X136446Y122417
X136446Y112417
X136446Y102417
T04
X89005Y31906
X89005Y14189
X60265Y14189
X60265Y31906
T05
X52981Y161787
X96288Y161787
T06
X13611Y12811
X135658Y12811
X135658Y166354
X13611Y166354
M30
