G75*
%MOIN*%
%OFA0B0*%
%FSLAX25Y25*%
%IPPOS*%
%LPD*%
%AMOC8*
5,1,8,0,0,1.08239X$1,22.5*
%
%ADD10C,0.04724*%
%ADD11R,0.09154X0.09154*%
%ADD12C,0.03839*%
%ADD13C,0.12858*%
%ADD14C,0.01600*%
%ADD15C,0.02381*%
%ADD16C,0.00630*%
%ADD17C,0.01000*%
%ADD18C,0.21654*%
D10*
X0136446Y0102417D03*
X0136446Y0112417D03*
X0136446Y0122417D03*
X0136446Y0132417D03*
D11*
X0089005Y0031906D03*
X0089005Y0014189D03*
X0060265Y0014189D03*
X0060265Y0031906D03*
D12*
X0066761Y0157850D03*
X0066761Y0165724D03*
X0074635Y0165724D03*
X0074635Y0157850D03*
X0082509Y0157850D03*
X0082509Y0165724D03*
D13*
X0096288Y0161787D03*
X0052981Y0161787D03*
D14*
X0061127Y0136708D02*
X0060175Y0136313D01*
X0059446Y0135585D01*
X0059052Y0134633D01*
X0059052Y0133602D01*
X0059446Y0132650D01*
X0059743Y0132354D01*
X0059743Y0106151D01*
X0060773Y0105120D01*
X0060773Y0082278D01*
X0056557Y0078061D01*
X0055444Y0076948D01*
X0055444Y0066690D01*
X0046747Y0057993D01*
X0043842Y0057993D01*
X0051091Y0065242D01*
X0052204Y0066355D01*
X0052204Y0071619D01*
X0051173Y0072649D01*
X0051173Y0072973D01*
X0052204Y0074004D01*
X0052204Y0114512D01*
X0052500Y0114808D01*
X0052894Y0115760D01*
X0052894Y0116791D01*
X0052500Y0117743D01*
X0051771Y0118472D01*
X0050819Y0118866D01*
X0049789Y0118866D01*
X0048837Y0118472D01*
X0048108Y0117743D01*
X0047918Y0117285D01*
X0047362Y0117842D01*
X0046410Y0118236D01*
X0045379Y0118236D01*
X0044427Y0117842D01*
X0043698Y0117113D01*
X0043304Y0116161D01*
X0043304Y0115130D01*
X0043698Y0114178D01*
X0043994Y0113882D01*
X0043994Y0070448D01*
X0041624Y0068078D01*
X0041624Y0084178D01*
X0041556Y0084246D01*
X0041556Y0084665D01*
X0041162Y0085617D01*
X0040433Y0086346D01*
X0039481Y0086740D01*
X0038800Y0086740D01*
X0037531Y0088010D01*
X0037531Y0099978D01*
X0036526Y0100983D01*
X0033285Y0104224D01*
X0033367Y0104422D01*
X0033367Y0105452D01*
X0032973Y0106404D01*
X0032244Y0107133D01*
X0031292Y0107528D01*
X0030261Y0107528D01*
X0029309Y0107133D01*
X0028580Y0106404D01*
X0028186Y0105452D01*
X0028186Y0104422D01*
X0028580Y0103470D01*
X0029309Y0102741D01*
X0030261Y0102346D01*
X0030312Y0102346D01*
X0034101Y0098557D01*
X0034101Y0086589D01*
X0036375Y0084315D01*
X0036375Y0083634D01*
X0036769Y0082682D01*
X0037498Y0081953D01*
X0037824Y0081818D01*
X0037824Y0067517D01*
X0025326Y0055019D01*
X0025326Y0051548D01*
X0026439Y0050435D01*
X0027252Y0049622D01*
X0027155Y0049389D01*
X0027155Y0048359D01*
X0027550Y0047407D01*
X0028278Y0046678D01*
X0029230Y0046283D01*
X0030261Y0046283D01*
X0031213Y0046678D01*
X0031942Y0047407D01*
X0032336Y0048359D01*
X0032336Y0049389D01*
X0031942Y0050341D01*
X0031213Y0051070D01*
X0031152Y0051095D01*
X0031072Y0051175D01*
X0031713Y0051816D01*
X0032107Y0052768D01*
X0032107Y0053187D01*
X0036375Y0057455D01*
X0036375Y0057178D01*
X0036769Y0056225D01*
X0036921Y0056073D01*
X0036814Y0055966D01*
X0036420Y0055014D01*
X0036420Y0053983D01*
X0036814Y0053031D01*
X0037543Y0052302D01*
X0038495Y0051908D01*
X0039526Y0051908D01*
X0040478Y0052302D01*
X0041206Y0053031D01*
X0041601Y0053983D01*
X0041601Y0054193D01*
X0048321Y0054193D01*
X0059244Y0065116D01*
X0059244Y0075374D01*
X0064573Y0080704D01*
X0064573Y0106694D01*
X0063543Y0107725D01*
X0063543Y0132354D01*
X0063839Y0132650D01*
X0064233Y0133602D01*
X0064233Y0134633D01*
X0063839Y0135585D01*
X0063110Y0136313D01*
X0062158Y0136708D01*
X0061127Y0136708D01*
X0059318Y0135275D02*
X0006600Y0135275D01*
X0006600Y0136873D02*
X0102517Y0136873D01*
X0102517Y0136948D02*
X0102517Y0135918D01*
X0102762Y0135325D01*
X0102762Y0121374D01*
X0102281Y0120893D01*
X0101887Y0119940D01*
X0101887Y0118910D01*
X0102281Y0117958D01*
X0103010Y0117229D01*
X0103962Y0116835D01*
X0104992Y0116835D01*
X0105945Y0117229D01*
X0106673Y0117958D01*
X0107068Y0118910D01*
X0107068Y0119940D01*
X0106673Y0120893D01*
X0106192Y0121374D01*
X0106192Y0134079D01*
X0106575Y0134237D01*
X0107303Y0134966D01*
X0107698Y0135918D01*
X0107698Y0136948D01*
X0107303Y0137900D01*
X0106575Y0138629D01*
X0105622Y0139024D01*
X0104592Y0139024D01*
X0103640Y0138629D01*
X0102911Y0137900D01*
X0102517Y0136948D01*
X0102762Y0135275D02*
X0063967Y0135275D01*
X0064233Y0133676D02*
X0102762Y0133676D01*
X0102762Y0132078D02*
X0063543Y0132078D01*
X0063543Y0130479D02*
X0102762Y0130479D01*
X0102762Y0128881D02*
X0063543Y0128881D01*
X0063543Y0127282D02*
X0102762Y0127282D01*
X0102762Y0125684D02*
X0063543Y0125684D01*
X0063543Y0124085D02*
X0102762Y0124085D01*
X0102762Y0122487D02*
X0063543Y0122487D01*
X0063543Y0120888D02*
X0102279Y0120888D01*
X0101887Y0119290D02*
X0063543Y0119290D01*
X0063543Y0117691D02*
X0102547Y0117691D01*
X0106407Y0117691D02*
X0142669Y0117691D01*
X0142669Y0116093D02*
X0137403Y0116093D01*
X0137194Y0116180D02*
X0138577Y0115607D01*
X0139635Y0114548D01*
X0140208Y0113166D01*
X0140208Y0111669D01*
X0139635Y0110286D01*
X0138577Y0109228D01*
X0137194Y0108655D01*
X0135697Y0108655D01*
X0134315Y0109228D01*
X0133256Y0110286D01*
X0132683Y0111669D01*
X0132683Y0113166D01*
X0133256Y0114548D01*
X0134315Y0115607D01*
X0135697Y0116180D01*
X0137194Y0116180D01*
X0135488Y0116093D02*
X0063543Y0116093D01*
X0063543Y0114494D02*
X0133234Y0114494D01*
X0132683Y0112896D02*
X0063543Y0112896D01*
X0063543Y0111297D02*
X0132837Y0111297D01*
X0133844Y0109699D02*
X0063543Y0109699D01*
X0063543Y0108100D02*
X0142669Y0108100D01*
X0142669Y0106502D02*
X0137264Y0106502D01*
X0137420Y0106477D02*
X0136773Y0106580D01*
X0136446Y0106580D01*
X0136446Y0102417D01*
X0136446Y0102417D01*
X0140608Y0102417D01*
X0140608Y0102090D01*
X0140505Y0101443D01*
X0140303Y0100820D01*
X0140005Y0100236D01*
X0139620Y0099706D01*
X0139157Y0099243D01*
X0138627Y0098857D01*
X0138043Y0098560D01*
X0137420Y0098358D01*
X0136773Y0098255D01*
X0136446Y0098255D01*
X0136446Y0102417D01*
X0136446Y0102417D01*
X0140608Y0102417D01*
X0140608Y0102745D01*
X0140505Y0103392D01*
X0140303Y0104015D01*
X0140005Y0104599D01*
X0139620Y0105129D01*
X0139157Y0105592D01*
X0138627Y0105977D01*
X0138043Y0106275D01*
X0137420Y0106477D01*
X0136446Y0106502D02*
X0136446Y0106502D01*
X0136446Y0106580D02*
X0136118Y0106580D01*
X0135471Y0106477D01*
X0134848Y0106275D01*
X0134264Y0105977D01*
X0133734Y0105592D01*
X0133271Y0105129D01*
X0132886Y0104599D01*
X0132588Y0104015D01*
X0132386Y0103392D01*
X0132283Y0102745D01*
X0132283Y0102417D01*
X0132283Y0102090D01*
X0132386Y0101443D01*
X0132588Y0100820D01*
X0132886Y0100236D01*
X0133271Y0099706D01*
X0133734Y0099243D01*
X0134264Y0098857D01*
X0134848Y0098560D01*
X0135471Y0098358D01*
X0136118Y0098255D01*
X0136446Y0098255D01*
X0136446Y0102417D01*
X0132283Y0102417D01*
X0136446Y0102417D01*
X0136446Y0102417D01*
X0136446Y0102417D01*
X0136446Y0106580D01*
X0135627Y0106502D02*
X0064573Y0106502D01*
X0064573Y0104903D02*
X0133107Y0104903D01*
X0132372Y0103305D02*
X0064573Y0103305D01*
X0064573Y0101706D02*
X0132344Y0101706D01*
X0132979Y0100108D02*
X0064573Y0100108D01*
X0064573Y0098509D02*
X0135004Y0098509D01*
X0136446Y0098509D02*
X0136446Y0098509D01*
X0137887Y0098509D02*
X0142669Y0098509D01*
X0142669Y0096911D02*
X0064573Y0096911D01*
X0064573Y0095312D02*
X0142669Y0095312D01*
X0142669Y0093714D02*
X0064573Y0093714D01*
X0064573Y0092115D02*
X0142669Y0092115D01*
X0142669Y0090517D02*
X0064573Y0090517D01*
X0064573Y0088918D02*
X0142669Y0088918D01*
X0142669Y0087320D02*
X0064573Y0087320D01*
X0064573Y0085721D02*
X0142669Y0085721D01*
X0142669Y0084123D02*
X0064573Y0084123D01*
X0064573Y0082524D02*
X0142669Y0082524D01*
X0142669Y0080926D02*
X0064573Y0080926D01*
X0063197Y0079327D02*
X0142669Y0079327D01*
X0142669Y0077729D02*
X0061598Y0077729D01*
X0060000Y0076130D02*
X0142669Y0076130D01*
X0142669Y0074532D02*
X0059244Y0074532D01*
X0059244Y0072933D02*
X0142669Y0072933D01*
X0142669Y0071334D02*
X0059244Y0071334D01*
X0059244Y0069736D02*
X0142669Y0069736D01*
X0142669Y0068137D02*
X0059244Y0068137D01*
X0059244Y0066539D02*
X0142669Y0066539D01*
X0142669Y0064940D02*
X0059068Y0064940D01*
X0057470Y0063342D02*
X0142669Y0063342D01*
X0142669Y0061743D02*
X0055871Y0061743D01*
X0054273Y0060145D02*
X0142669Y0060145D01*
X0142669Y0058546D02*
X0052674Y0058546D01*
X0051076Y0056948D02*
X0142669Y0056948D01*
X0142669Y0055349D02*
X0049477Y0055349D01*
X0047300Y0058546D02*
X0044396Y0058546D01*
X0045994Y0060145D02*
X0048899Y0060145D01*
X0047593Y0061743D02*
X0050497Y0061743D01*
X0049191Y0063342D02*
X0052096Y0063342D01*
X0050790Y0064940D02*
X0053694Y0064940D01*
X0052204Y0066539D02*
X0055293Y0066539D01*
X0055444Y0068137D02*
X0052204Y0068137D01*
X0052204Y0069736D02*
X0055444Y0069736D01*
X0055444Y0071334D02*
X0052204Y0071334D01*
X0051173Y0072933D02*
X0055444Y0072933D01*
X0055444Y0074532D02*
X0052204Y0074532D01*
X0052204Y0076130D02*
X0055444Y0076130D01*
X0056224Y0077729D02*
X0052204Y0077729D01*
X0052204Y0079327D02*
X0057823Y0079327D01*
X0059421Y0080926D02*
X0052204Y0080926D01*
X0052204Y0082524D02*
X0060773Y0082524D01*
X0060773Y0084123D02*
X0052204Y0084123D01*
X0052204Y0085721D02*
X0060773Y0085721D01*
X0060773Y0087320D02*
X0052204Y0087320D01*
X0052204Y0088918D02*
X0060773Y0088918D01*
X0060773Y0090517D02*
X0052204Y0090517D01*
X0052204Y0092115D02*
X0060773Y0092115D01*
X0060773Y0093714D02*
X0052204Y0093714D01*
X0052204Y0095312D02*
X0060773Y0095312D01*
X0060773Y0096911D02*
X0052204Y0096911D01*
X0052204Y0098509D02*
X0060773Y0098509D01*
X0060773Y0100108D02*
X0052204Y0100108D01*
X0052204Y0101706D02*
X0060773Y0101706D01*
X0060773Y0103305D02*
X0052204Y0103305D01*
X0052204Y0104903D02*
X0060773Y0104903D01*
X0059743Y0106502D02*
X0052204Y0106502D01*
X0052204Y0108100D02*
X0059743Y0108100D01*
X0059743Y0109699D02*
X0052204Y0109699D01*
X0052204Y0111297D02*
X0059743Y0111297D01*
X0059743Y0112896D02*
X0052204Y0112896D01*
X0052204Y0114494D02*
X0059743Y0114494D01*
X0059743Y0116093D02*
X0052894Y0116093D01*
X0052522Y0117691D02*
X0059743Y0117691D01*
X0059743Y0119290D02*
X0006600Y0119290D01*
X0006600Y0120888D02*
X0059743Y0120888D01*
X0059743Y0122487D02*
X0006600Y0122487D01*
X0006600Y0124085D02*
X0059743Y0124085D01*
X0059743Y0125684D02*
X0006600Y0125684D01*
X0006600Y0127282D02*
X0059743Y0127282D01*
X0059743Y0128881D02*
X0006600Y0128881D01*
X0006600Y0130479D02*
X0059743Y0130479D01*
X0059743Y0132078D02*
X0006600Y0132078D01*
X0006600Y0133676D02*
X0059052Y0133676D01*
X0048086Y0117691D02*
X0047512Y0117691D01*
X0044277Y0117691D02*
X0006600Y0117691D01*
X0006600Y0116093D02*
X0043304Y0116093D01*
X0043567Y0114494D02*
X0006600Y0114494D01*
X0006600Y0112896D02*
X0043994Y0112896D01*
X0043994Y0111297D02*
X0006600Y0111297D01*
X0006600Y0109699D02*
X0043994Y0109699D01*
X0043994Y0108100D02*
X0006600Y0108100D01*
X0006600Y0106502D02*
X0028678Y0106502D01*
X0028186Y0104903D02*
X0006600Y0104903D01*
X0006600Y0103305D02*
X0028745Y0103305D01*
X0030952Y0101706D02*
X0006600Y0101706D01*
X0006600Y0100108D02*
X0032550Y0100108D01*
X0032244Y0099574D02*
X0031292Y0099968D01*
X0030261Y0099968D01*
X0029309Y0099574D01*
X0028580Y0098845D01*
X0028186Y0097893D01*
X0028186Y0096863D01*
X0028580Y0095911D01*
X0029061Y0095429D01*
X0029061Y0072101D01*
X0029446Y0071716D01*
X0029446Y0071036D01*
X0029840Y0070084D01*
X0030569Y0069355D01*
X0031521Y0068961D01*
X0032552Y0068961D01*
X0033504Y0069355D01*
X0034232Y0070084D01*
X0034627Y0071036D01*
X0034627Y0072066D01*
X0034232Y0073019D01*
X0033504Y0073747D01*
X0032552Y0074142D01*
X0032491Y0074142D01*
X0032491Y0095429D01*
X0032973Y0095911D01*
X0033367Y0096863D01*
X0033367Y0097893D01*
X0032973Y0098845D01*
X0032244Y0099574D01*
X0033112Y0098509D02*
X0034101Y0098509D01*
X0034101Y0096911D02*
X0033367Y0096911D01*
X0034101Y0095312D02*
X0032491Y0095312D01*
X0032491Y0093714D02*
X0034101Y0093714D01*
X0034101Y0092115D02*
X0032491Y0092115D01*
X0032491Y0090517D02*
X0034101Y0090517D01*
X0034101Y0088918D02*
X0032491Y0088918D01*
X0032491Y0087320D02*
X0034101Y0087320D01*
X0034969Y0085721D02*
X0032491Y0085721D01*
X0032491Y0084123D02*
X0036375Y0084123D01*
X0036927Y0082524D02*
X0032491Y0082524D01*
X0032491Y0080926D02*
X0037824Y0080926D01*
X0037824Y0079327D02*
X0032491Y0079327D01*
X0032491Y0077729D02*
X0037824Y0077729D01*
X0037824Y0076130D02*
X0032491Y0076130D01*
X0032491Y0074532D02*
X0037824Y0074532D01*
X0037824Y0072933D02*
X0034268Y0072933D01*
X0034627Y0071334D02*
X0037824Y0071334D01*
X0037824Y0069736D02*
X0033885Y0069736D01*
X0030188Y0069736D02*
X0006600Y0069736D01*
X0006600Y0071334D02*
X0029446Y0071334D01*
X0029061Y0072933D02*
X0006600Y0072933D01*
X0006600Y0074532D02*
X0029061Y0074532D01*
X0029061Y0076130D02*
X0006600Y0076130D01*
X0006600Y0077729D02*
X0029061Y0077729D01*
X0029061Y0079327D02*
X0006600Y0079327D01*
X0006600Y0080926D02*
X0029061Y0080926D01*
X0029061Y0082524D02*
X0006600Y0082524D01*
X0006600Y0084123D02*
X0029061Y0084123D01*
X0029061Y0085721D02*
X0006600Y0085721D01*
X0006600Y0087320D02*
X0029061Y0087320D01*
X0029061Y0088918D02*
X0006600Y0088918D01*
X0006600Y0090517D02*
X0029061Y0090517D01*
X0029061Y0092115D02*
X0006600Y0092115D01*
X0006600Y0093714D02*
X0029061Y0093714D01*
X0029061Y0095312D02*
X0006600Y0095312D01*
X0006600Y0096911D02*
X0028186Y0096911D01*
X0028441Y0098509D02*
X0006600Y0098509D01*
X0006600Y0068137D02*
X0037824Y0068137D01*
X0036846Y0066539D02*
X0006600Y0066539D01*
X0006600Y0064940D02*
X0035247Y0064940D01*
X0033649Y0063342D02*
X0006600Y0063342D01*
X0006600Y0061743D02*
X0032050Y0061743D01*
X0030452Y0060145D02*
X0006600Y0060145D01*
X0006600Y0058546D02*
X0028853Y0058546D01*
X0027255Y0056948D02*
X0006600Y0056948D01*
X0006600Y0055349D02*
X0025656Y0055349D01*
X0025326Y0053751D02*
X0006600Y0053751D01*
X0006600Y0052152D02*
X0025326Y0052152D01*
X0026320Y0050554D02*
X0006600Y0050554D01*
X0006600Y0048955D02*
X0027155Y0048955D01*
X0026439Y0050435D02*
X0026439Y0050435D01*
X0027599Y0047357D02*
X0006600Y0047357D01*
X0006600Y0045758D02*
X0142669Y0045758D01*
X0142669Y0044160D02*
X0006600Y0044160D01*
X0006600Y0042561D02*
X0142669Y0042561D01*
X0142669Y0040963D02*
X0006600Y0040963D01*
X0006600Y0039364D02*
X0142669Y0039364D01*
X0142669Y0037766D02*
X0094278Y0037766D01*
X0094161Y0037882D02*
X0094981Y0037062D01*
X0094981Y0026749D01*
X0094161Y0025929D01*
X0083848Y0025929D01*
X0083028Y0026749D01*
X0083028Y0037062D01*
X0083848Y0037882D01*
X0094161Y0037882D01*
X0094981Y0036167D02*
X0142669Y0036167D01*
X0142669Y0034569D02*
X0094981Y0034569D01*
X0094981Y0032970D02*
X0142669Y0032970D01*
X0142669Y0031372D02*
X0094981Y0031372D01*
X0094981Y0029773D02*
X0142669Y0029773D01*
X0142669Y0028175D02*
X0094981Y0028175D01*
X0094809Y0026576D02*
X0142669Y0026576D01*
X0142669Y0024978D02*
X0137492Y0024978D01*
X0137268Y0025038D02*
X0138820Y0024622D01*
X0142669Y0024622D01*
X0142669Y0149031D01*
X0006600Y0149031D01*
X0006600Y0024622D01*
X0010450Y0024622D01*
X0012001Y0025038D01*
X0015221Y0025038D01*
X0016772Y0024622D01*
X0132497Y0024622D01*
X0134049Y0025038D01*
X0137268Y0025038D01*
X0133824Y0024978D02*
X0015445Y0024978D01*
X0011777Y0024978D02*
X0006600Y0024978D01*
X0006600Y0026576D02*
X0054460Y0026576D01*
X0054288Y0026749D02*
X0055108Y0025929D01*
X0065421Y0025929D01*
X0066241Y0026749D01*
X0066241Y0037062D01*
X0065421Y0037882D01*
X0055108Y0037882D01*
X0054288Y0037062D01*
X0054288Y0026749D01*
X0054288Y0028175D02*
X0006600Y0028175D01*
X0006600Y0029773D02*
X0054288Y0029773D01*
X0054288Y0031372D02*
X0006600Y0031372D01*
X0006600Y0032970D02*
X0054288Y0032970D01*
X0054288Y0034569D02*
X0006600Y0034569D01*
X0006600Y0036167D02*
X0054288Y0036167D01*
X0054991Y0037766D02*
X0006600Y0037766D01*
X0031892Y0047357D02*
X0142669Y0047357D01*
X0142669Y0048955D02*
X0032336Y0048955D01*
X0031729Y0050554D02*
X0142669Y0050554D01*
X0142669Y0052152D02*
X0040116Y0052152D01*
X0041505Y0053751D02*
X0142669Y0053751D01*
X0142669Y0100108D02*
X0139912Y0100108D01*
X0140547Y0101706D02*
X0142669Y0101706D01*
X0142669Y0103305D02*
X0140519Y0103305D01*
X0139784Y0104903D02*
X0142669Y0104903D01*
X0142669Y0109699D02*
X0139048Y0109699D01*
X0140054Y0111297D02*
X0142669Y0111297D01*
X0142669Y0112896D02*
X0140208Y0112896D01*
X0139658Y0114494D02*
X0142669Y0114494D01*
X0142669Y0119290D02*
X0138639Y0119290D01*
X0138577Y0119228D02*
X0139635Y0120286D01*
X0140208Y0121669D01*
X0140208Y0123166D01*
X0139635Y0124548D01*
X0138577Y0125607D01*
X0137194Y0126180D01*
X0135697Y0126180D01*
X0134315Y0125607D01*
X0133256Y0124548D01*
X0132683Y0123166D01*
X0132683Y0121669D01*
X0133256Y0120286D01*
X0134315Y0119228D01*
X0135697Y0118655D01*
X0137194Y0118655D01*
X0138577Y0119228D01*
X0139885Y0120888D02*
X0142669Y0120888D01*
X0142669Y0122487D02*
X0140208Y0122487D01*
X0139827Y0124085D02*
X0142669Y0124085D01*
X0142669Y0125684D02*
X0138391Y0125684D01*
X0137194Y0128655D02*
X0135697Y0128655D01*
X0134315Y0129228D01*
X0133256Y0130286D01*
X0132683Y0131669D01*
X0132683Y0133166D01*
X0133256Y0134548D01*
X0134315Y0135607D01*
X0135697Y0136180D01*
X0137194Y0136180D01*
X0138577Y0135607D01*
X0139635Y0134548D01*
X0140208Y0133166D01*
X0140208Y0131669D01*
X0139635Y0130286D01*
X0138577Y0129228D01*
X0137194Y0128655D01*
X0137739Y0128881D02*
X0142669Y0128881D01*
X0142669Y0130479D02*
X0139715Y0130479D01*
X0140208Y0132078D02*
X0142669Y0132078D01*
X0142669Y0133676D02*
X0139996Y0133676D01*
X0138909Y0135275D02*
X0142669Y0135275D01*
X0142669Y0136873D02*
X0107698Y0136873D01*
X0107431Y0135275D02*
X0133983Y0135275D01*
X0132895Y0133676D02*
X0106192Y0133676D01*
X0106192Y0132078D02*
X0132683Y0132078D01*
X0133176Y0130479D02*
X0106192Y0130479D01*
X0106192Y0128881D02*
X0135152Y0128881D01*
X0134501Y0125684D02*
X0106192Y0125684D01*
X0106192Y0127282D02*
X0142669Y0127282D01*
X0133064Y0124085D02*
X0106192Y0124085D01*
X0106192Y0122487D02*
X0132683Y0122487D01*
X0133007Y0120888D02*
X0106675Y0120888D01*
X0107068Y0119290D02*
X0134253Y0119290D01*
X0136446Y0104903D02*
X0136446Y0104903D01*
X0136446Y0103305D02*
X0136446Y0103305D01*
X0136446Y0101706D02*
X0136446Y0101706D01*
X0136446Y0100108D02*
X0136446Y0100108D01*
X0142669Y0138472D02*
X0106732Y0138472D01*
X0103482Y0138472D02*
X0006600Y0138472D01*
X0006600Y0140070D02*
X0142669Y0140070D01*
X0142669Y0141669D02*
X0006600Y0141669D01*
X0006600Y0143268D02*
X0142669Y0143268D01*
X0142669Y0144866D02*
X0006600Y0144866D01*
X0006600Y0146465D02*
X0142669Y0146465D01*
X0142669Y0148063D02*
X0006600Y0148063D01*
X0032875Y0106502D02*
X0043994Y0106502D01*
X0043994Y0104903D02*
X0033367Y0104903D01*
X0034204Y0103305D02*
X0043994Y0103305D01*
X0043994Y0101706D02*
X0035803Y0101706D01*
X0037401Y0100108D02*
X0043994Y0100108D01*
X0043994Y0098509D02*
X0037531Y0098509D01*
X0037531Y0096911D02*
X0043994Y0096911D01*
X0043994Y0095312D02*
X0037531Y0095312D01*
X0037531Y0093714D02*
X0043994Y0093714D01*
X0043994Y0092115D02*
X0037531Y0092115D01*
X0037531Y0090517D02*
X0043994Y0090517D01*
X0043994Y0088918D02*
X0037531Y0088918D01*
X0038221Y0087320D02*
X0043994Y0087320D01*
X0043994Y0085721D02*
X0041057Y0085721D01*
X0041624Y0084123D02*
X0043994Y0084123D01*
X0043994Y0082524D02*
X0041624Y0082524D01*
X0041624Y0080926D02*
X0043994Y0080926D01*
X0043994Y0079327D02*
X0041624Y0079327D01*
X0041624Y0077729D02*
X0043994Y0077729D01*
X0043994Y0076130D02*
X0041624Y0076130D01*
X0041624Y0074532D02*
X0043994Y0074532D01*
X0043994Y0072933D02*
X0041624Y0072933D01*
X0041624Y0071334D02*
X0043994Y0071334D01*
X0043282Y0069736D02*
X0041624Y0069736D01*
X0041624Y0068137D02*
X0041684Y0068137D01*
X0036470Y0056948D02*
X0035868Y0056948D01*
X0036559Y0055349D02*
X0034269Y0055349D01*
X0032671Y0053751D02*
X0036516Y0053751D01*
X0037905Y0052152D02*
X0031852Y0052152D01*
X0065538Y0037766D02*
X0083732Y0037766D01*
X0083028Y0036167D02*
X0066241Y0036167D01*
X0066241Y0034569D02*
X0083028Y0034569D01*
X0083028Y0032970D02*
X0066241Y0032970D01*
X0066241Y0031372D02*
X0083028Y0031372D01*
X0083028Y0029773D02*
X0066241Y0029773D01*
X0066241Y0028175D02*
X0083028Y0028175D01*
X0083201Y0026576D02*
X0066069Y0026576D01*
X0093769Y0062102D02*
X0101643Y0062732D01*
D15*
X0101643Y0062732D03*
X0084162Y0039425D03*
X0073611Y0052654D03*
X0064162Y0062102D03*
X0061013Y0076591D03*
X0051564Y0072811D03*
X0050304Y0062102D03*
X0038965Y0057693D03*
X0039010Y0054498D03*
X0029517Y0053283D03*
X0029746Y0048874D03*
X0029517Y0061472D03*
X0032036Y0071551D03*
X0038965Y0084150D03*
X0030776Y0097378D03*
X0026997Y0089819D03*
X0030776Y0104937D03*
X0038335Y0105567D03*
X0033296Y0115646D03*
X0045894Y0115646D03*
X0050304Y0116276D03*
X0060383Y0104937D03*
X0065422Y0133283D03*
X0061643Y0134117D03*
X0042745Y0138323D03*
X0018178Y0147772D03*
X0009359Y0131394D03*
X0009359Y0120055D03*
X0017548Y0104307D03*
X0104477Y0119425D03*
X0105107Y0136433D03*
X0110776Y0091079D03*
D16*
X0104477Y0119425D02*
X0104477Y0135803D01*
X0105107Y0136433D01*
X0065422Y0133283D02*
X0064792Y0132654D01*
X0043375Y0137693D02*
X0042745Y0138323D01*
X0033926Y0116906D02*
X0033296Y0116276D01*
X0033296Y0115646D01*
X0038965Y0106197D02*
X0038335Y0105567D01*
X0035816Y0099268D02*
X0035816Y0087299D01*
X0038965Y0084150D01*
X0030776Y0072811D02*
X0032036Y0071551D01*
X0030776Y0072811D02*
X0030776Y0097378D01*
X0035816Y0099268D02*
X0030776Y0104307D01*
X0030776Y0104937D01*
X0026367Y0090449D02*
X0026997Y0089819D01*
X0016918Y0103677D02*
X0017548Y0104307D01*
X0009359Y0120055D02*
X0009359Y0120685D01*
X0008729Y0121315D01*
X0009989Y0130764D02*
X0009359Y0131394D01*
X0060383Y0106197D02*
X0060383Y0104937D01*
X0061013Y0076591D02*
X0060383Y0075961D01*
X0064162Y0062732D02*
X0064162Y0062102D01*
X0072981Y0053283D02*
X0073611Y0052654D01*
X0050934Y0062732D02*
X0050304Y0062102D01*
D17*
X0050304Y0067142D02*
X0050304Y0070832D01*
X0049273Y0071862D01*
X0049273Y0073760D01*
X0050304Y0074791D01*
X0050304Y0116276D01*
X0045894Y0115646D02*
X0045894Y0069661D01*
X0029517Y0053283D01*
X0027226Y0052335D02*
X0027226Y0054232D01*
X0039724Y0066730D01*
X0039724Y0083391D01*
X0038965Y0084150D01*
X0050304Y0067142D02*
X0040855Y0057693D01*
X0038965Y0057693D01*
X0040605Y0056093D02*
X0047534Y0056093D01*
X0057344Y0065903D01*
X0057344Y0076161D01*
X0062673Y0081491D01*
X0062673Y0105907D01*
X0061643Y0106938D01*
X0061643Y0134117D01*
X0040605Y0056093D02*
X0039010Y0054498D01*
X0029746Y0049815D02*
X0029746Y0048874D01*
X0029746Y0049815D02*
X0027226Y0052335D01*
D18*
X0013611Y0012811D03*
X0135658Y0012811D03*
X0135658Y0166354D03*
X0013611Y0166354D03*
M02*
