G75*
%MOIN*%
%OFA0B0*%
%FSLAX25Y25*%
%IPPOS*%
%LPD*%
%AMOC8*
5,1,8,0,0,1.08239X$1,22.5*
%
%ADD10R,0.04737X0.01666*%
%ADD11R,0.01666X0.04737*%
%ADD12R,0.05131X0.04737*%
%ADD13R,0.04442X0.03713*%
%ADD14R,0.03713X0.04442*%
%ADD15C,0.01990*%
%ADD16R,0.03556X0.04343*%
%ADD17R,0.07099X0.03162*%
%ADD18C,0.05524*%
%ADD19R,0.09599X0.05599*%
%ADD20R,0.09461X0.14973*%
%ADD21R,0.07808X0.03635*%
%ADD22R,0.04400X0.02400*%
%ADD23R,0.04737X0.05131*%
%ADD24R,0.04343X0.03556*%
%ADD25R,0.09954X0.09954*%
%ADD26R,0.02769X0.13005*%
%ADD27C,0.04639*%
%ADD28C,0.13658*%
%ADD29R,0.06902X0.03162*%
%ADD30R,0.07887X0.05524*%
%ADD31C,0.03181*%
%ADD32C,0.22454*%
D10*
X0026249Y0106236D03*
X0026249Y0108205D03*
X0026249Y0110173D03*
X0026249Y0112142D03*
X0026249Y0114110D03*
X0026249Y0116079D03*
X0026249Y0118047D03*
X0026249Y0120016D03*
X0026249Y0121984D03*
X0026249Y0123953D03*
X0026249Y0125921D03*
X0026249Y0127890D03*
X0026249Y0129858D03*
X0026249Y0131827D03*
X0026249Y0133795D03*
X0026249Y0135764D03*
X0071524Y0135764D03*
X0071524Y0133795D03*
X0071524Y0131827D03*
X0071524Y0129858D03*
X0071524Y0127890D03*
X0071524Y0125921D03*
X0071524Y0123953D03*
X0071524Y0121984D03*
X0071524Y0120016D03*
X0071524Y0118047D03*
X0071524Y0116079D03*
X0071524Y0114110D03*
X0071524Y0112142D03*
X0071524Y0110173D03*
X0071524Y0108205D03*
X0071524Y0106236D03*
D11*
X0063650Y0098362D03*
X0061682Y0098362D03*
X0059713Y0098362D03*
X0057745Y0098362D03*
X0055776Y0098362D03*
X0053808Y0098362D03*
X0051839Y0098362D03*
X0049871Y0098362D03*
X0047902Y0098362D03*
X0045934Y0098362D03*
X0043965Y0098362D03*
X0041997Y0098362D03*
X0040028Y0098362D03*
X0038060Y0098362D03*
X0036091Y0098362D03*
X0034123Y0098362D03*
X0034123Y0143638D03*
X0036091Y0143638D03*
X0038060Y0143638D03*
X0040028Y0143638D03*
X0041997Y0143638D03*
X0043965Y0143638D03*
X0045934Y0143638D03*
X0047902Y0143638D03*
X0049871Y0143638D03*
X0051839Y0143638D03*
X0053808Y0143638D03*
X0055776Y0143638D03*
X0057745Y0143638D03*
X0059713Y0143638D03*
X0061682Y0143638D03*
X0063650Y0143638D03*
D12*
X0017666Y0112142D03*
X0010973Y0112142D03*
D13*
X0012981Y0119661D03*
X0017706Y0119661D03*
X0019044Y0100764D03*
X0023769Y0100764D03*
X0060107Y0092220D03*
X0064831Y0092220D03*
X0081013Y0081472D03*
X0085737Y0081472D03*
D14*
X0076446Y0078165D03*
X0076446Y0073441D03*
X0072509Y0073441D03*
X0072666Y0068874D03*
X0072666Y0064150D03*
X0077824Y0063087D03*
X0077824Y0058362D03*
X0076918Y0052457D03*
X0076918Y0047732D03*
X0064280Y0053323D03*
X0064280Y0058047D03*
X0049989Y0058126D03*
X0049989Y0053402D03*
X0072509Y0078165D03*
X0090265Y0102142D03*
X0090265Y0106866D03*
X0085225Y0130764D03*
X0085225Y0135488D03*
X0077942Y0135370D03*
X0077942Y0140094D03*
X0116131Y0092772D03*
X0116131Y0088047D03*
X0118060Y0126433D03*
X0118060Y0131157D03*
X0025580Y0142890D03*
X0021643Y0142890D03*
X0021643Y0147614D03*
X0025580Y0147614D03*
D15*
X0032791Y0090956D02*
X0032791Y0088210D01*
X0030045Y0088210D01*
X0030045Y0090956D01*
X0032791Y0090956D01*
X0032791Y0090100D02*
X0030045Y0090100D01*
X0039697Y0090956D02*
X0039697Y0088210D01*
X0036951Y0088210D01*
X0036951Y0090956D01*
X0039697Y0090956D01*
X0039697Y0090100D02*
X0036951Y0090100D01*
D16*
X0035068Y0082535D03*
X0029950Y0082535D03*
X0029950Y0076433D03*
X0035068Y0076433D03*
X0044831Y0089583D03*
X0049950Y0089583D03*
X0099674Y0143638D03*
X0104792Y0143638D03*
D17*
X0014753Y0136394D03*
X0014753Y0131669D03*
X0014753Y0126945D03*
D18*
X0136446Y0122417D03*
X0136446Y0132417D03*
X0136446Y0112417D03*
X0136446Y0102417D03*
D19*
X0094009Y0062185D03*
X0094009Y0053087D03*
X0094009Y0043988D03*
D20*
X0118410Y0053087D03*
D21*
X0115658Y0097398D03*
X0115658Y0102398D03*
X0115658Y0107398D03*
X0115658Y0112398D03*
X0111406Y0121768D03*
X0111406Y0126768D03*
X0111406Y0131768D03*
X0111406Y0136768D03*
X0092902Y0136768D03*
X0092902Y0131768D03*
X0092902Y0126768D03*
X0092902Y0121768D03*
X0097154Y0112398D03*
X0097154Y0107398D03*
X0097154Y0102398D03*
X0097154Y0097398D03*
D22*
X0066043Y0084199D03*
X0066043Y0081699D03*
X0066043Y0079199D03*
X0066043Y0076699D03*
X0066043Y0074199D03*
X0066043Y0071699D03*
X0066043Y0069199D03*
X0066043Y0066699D03*
X0044643Y0066699D03*
X0044643Y0069199D03*
X0044643Y0071699D03*
X0044643Y0074199D03*
X0044643Y0076699D03*
X0044643Y0079199D03*
X0044643Y0081699D03*
X0044643Y0084199D03*
D23*
X0081800Y0075843D03*
X0081800Y0069150D03*
D24*
X0059871Y0058677D03*
X0059871Y0053559D03*
X0054950Y0053559D03*
X0054950Y0058677D03*
D25*
X0060265Y0031906D03*
X0060265Y0014189D03*
X0089005Y0014189D03*
X0089005Y0031906D03*
D26*
X0080934Y0037811D03*
X0077784Y0037811D03*
X0074635Y0037811D03*
X0071485Y0037811D03*
X0068335Y0037811D03*
D27*
X0066761Y0157850D03*
X0066761Y0165724D03*
X0074635Y0165724D03*
X0074635Y0157850D03*
X0082509Y0157850D03*
X0082509Y0165724D03*
D28*
X0096288Y0161787D03*
X0052981Y0161787D03*
D29*
X0024221Y0068874D03*
X0024221Y0064937D03*
X0024221Y0061000D03*
X0024221Y0057063D03*
X0024221Y0053126D03*
X0024221Y0049189D03*
X0024221Y0045252D03*
D30*
X0008965Y0040134D03*
X0008965Y0073992D03*
D31*
X0026997Y0089819D03*
X0030776Y0097378D03*
X0030776Y0104937D03*
X0038335Y0105567D03*
X0033296Y0115646D03*
X0045894Y0115646D03*
X0050304Y0116276D03*
X0060383Y0104937D03*
X0061013Y0076591D03*
X0051564Y0072811D03*
X0050304Y0062102D03*
X0038965Y0057693D03*
X0039010Y0054498D03*
X0029517Y0053283D03*
X0029746Y0048874D03*
X0029517Y0061472D03*
X0032036Y0071551D03*
X0038965Y0084150D03*
X0017548Y0104307D03*
X0009359Y0120055D03*
X0009359Y0131394D03*
X0018178Y0147772D03*
X0042745Y0138323D03*
X0061643Y0134117D03*
X0065422Y0133283D03*
X0104477Y0119425D03*
X0105107Y0136433D03*
X0110776Y0091079D03*
X0101643Y0062732D03*
X0084162Y0039425D03*
X0073611Y0052654D03*
X0064162Y0062102D03*
D32*
X0013611Y0012811D03*
X0135658Y0012811D03*
X0135658Y0166354D03*
X0013611Y0166354D03*
M02*
